<?xml version="1.0" encoding="UTF-8"?>
<!DOCTYPE svg PUBLIC "-//W3C//DTD SVG 1.1//EN" "http://www.w3.org/Graphics/SVG/1.1/DTD/svg11.dtd">
<svg xmlns="http://www.w3.org/2000/svg" version="1.1" width="512px" height="512px" style="shape-rendering:geometricPrecision; text-rendering:geometricPrecision; image-rendering:optimizeQuality; fill-rule:evenodd; clip-rule:evenodd" xmlns:xlink="http://www.w3.org/1999/xlink">
<g><path style="opacity:0.992" fill="#49C61D" d="M 50.5,366.5 C 146.454,356.138 242.454,345.971 338.5,336C 351.423,333.549 361.09,326.715 367.5,315.5C 285.002,314.501 202.335,314.167 119.5,314.5C 119.5,303.5 119.5,292.5 119.5,281.5C 221.833,281.5 324.167,281.5 426.5,281.5C 426.829,268.656 426.495,255.989 425.5,243.5C 423.514,234.525 417.848,229.858 408.5,229.5C 398.29,230.706 392.957,236.373 392.5,246.5C 324.212,235.174 255.879,224.174 187.5,213.5C 187.934,198.442 187.434,183.442 186,168.5C 177.747,148.957 163.247,141.457 142.5,146C 111.918,158.803 81.2512,171.303 50.5,183.5C 50.1676,171.149 50.501,158.815 51.5,146.5C 80.7513,133.584 110.418,121.75 140.5,111C 178.897,106.776 205.064,122.61 219,158.5C 221.117,166.696 221.95,175.029 221.5,183.5C 272.788,192.215 324.121,200.382 375.5,208C 389.233,196.451 404.899,192.784 422.5,197C 442.988,203.153 455.488,216.653 460,237.5C 460.667,259.5 460.667,281.5 460,303.5C 458.167,309.333 454.333,313.167 448.5,315C 435.5,315.333 422.5,315.667 409.5,316C 401.531,329.926 391.864,342.592 380.5,354C 369.736,362.048 357.736,367.381 344.5,370C 246.599,380.36 148.766,390.86 51,401.5C 50.5001,389.838 50.3335,378.171 50.5,366.5 Z"/></g>
<g><path style="opacity:1" fill="#49C61D" d="M 130.5,187.5 C 144.704,186.22 152.204,192.553 153,206.5C 150.143,217.681 142.976,222.514 131.5,221C 119.633,215.403 116.466,206.57 122,194.5C 124.441,191.546 127.275,189.213 130.5,187.5 Z"/></g>
<g><path style="opacity:0.761" fill="#49C61D" d="M 425.5,243.5 C 426.495,255.989 426.829,268.656 426.5,281.5C 324.167,281.5 221.833,281.5 119.5,281.5C 221.332,280.501 323.332,280.167 425.5,280.5C 425.5,268.167 425.5,255.833 425.5,243.5 Z"/></g>
<g><path style="opacity:0.804" fill="#49C61D" d="M 119.5,281.5 C 119.5,292.5 119.5,303.5 119.5,314.5C 202.335,314.167 285.002,314.501 367.5,315.5C 284.5,315.5 201.5,315.5 118.5,315.5C 118.172,303.988 118.505,292.654 119.5,281.5 Z"/></g>
</svg>
