<svg width="200" height="200" xmlns="http://www.w3.org/2000/svg" viewBox="0 0 200 200">
    <g id="alligator" transform="translate(0, 200) scale(0.1, -0.1)">
        <path d="M900 1500 c-150 -50 -300 -100 -450 -150 -25 -10 -50 -25 -75 -50
             -50 -50 -75 -150 -25 -250 50 -100 150 -150 250 -100 75 25 150 50 225 75
             25 10 50 10 75 0 25 -10 50 -25 75 -50 25 -25 50 -50 75 -75 25 -25 50 -50
             75 -50 50 0 100 25 125 75 25 50 0 100 -50 125 -25 10 -50 10 -75 0 -25
             -10 -50 -10 -75 0 -25 10 -50 10 -75 0 -25 -10 -50 -25 -75 -50 -25 -25
             -50 -50 -75 -50 -50 0 -100 25 -125 75 -25 50 0 100 50 125 25 10 50 10
             75 0 25 -10 50 -25 75 -50 50 -50 150 -50 200 0 50 50 50 150 0 200 -25
             25 -50 50 -75 50 -50 0 -100 0 -150 0 -50 0 -100 0 -150 0 -50 0 -100 0
             -150 0 -50 0 -100 0 -150 0z" fill="#228B22"/>
    </g>
</svg>
